<?xml version="1.0" encoding="UTF-8" standalone="no"?>
<!-- Created with Inkscape (http://www.inkscape.org/) -->

<svg
   xmlns:dc="http://purl.org/dc/elements/1.1/"
   xmlns:cc="http://creativecommons.org/ns#"
   xmlns:rdf="http://www.w3.org/1999/02/22-rdf-syntax-ns#"
   xmlns:svg="http://www.w3.org/2000/svg"
   xmlns="http://www.w3.org/2000/svg"
   xmlns:sodipodi="http://sodipodi.sourceforge.net/DTD/sodipodi-0.dtd"
   xmlns:inkscape="http://www.inkscape.org/namespaces/inkscape"
   id="svg2"
   version="1.1"
   inkscape:version="0.91 r13725"
   xml:space="preserve"
   width="259.58154"
   height="145.76163"
   viewBox="0 0 259.58155 145.76162"
   sodipodi:docname="EMOPEC_banner.svg"
   inkscape:export-filename="/home/micker/dev/rbs_calc/rbs_calc/static/cfbdtu_banner.png"
   inkscape:export-xdpi="60"
   inkscape:export-ydpi="60"><metadata
     id="metadata8"><rdf:RDF><cc:Work
         rdf:about=""><dc:format>image/svg+xml</dc:format><dc:type
           rdf:resource="http://purl.org/dc/dcmitype/StillImage" /><dc:title></dc:title></cc:Work></rdf:RDF></metadata><defs
     id="defs6"><clipPath
       clipPathUnits="userSpaceOnUse"
       id="clipPath102"><path
         d="m 0,0 388.50766,0 0,180.95926 L 0,180.95926 0,0 Z"
         id="path104"
         inkscape:connector-curvature="0" /></clipPath><clipPath
       clipPathUnits="userSpaceOnUse"
       id="clipPath112"><path
         d="m 270.027,172.186 110.48,0 0,-161.336 -110.48,0 0,161.336 z"
         id="path114"
         inkscape:connector-curvature="0" /></clipPath><clipPath
       clipPathUnits="userSpaceOnUse"
       id="clipPath120"><path
         d="m 270,10 111,0 0,163 -111,0 0,-163 z"
         id="path122"
         inkscape:connector-curvature="0" /></clipPath><clipPath
       clipPathUnits="userSpaceOnUse"
       id="clipPath112-1"><path
         d="m 270.027,172.186 110.48,0 0,-161.336 -110.48,0 0,161.336 z"
         id="path114-5"
         inkscape:connector-curvature="0" /></clipPath><clipPath
       clipPathUnits="userSpaceOnUse"
       id="clipPath120-0"><path
         d="m 270,10 111,0 0,163 -111,0 0,-163 z"
         id="path122-1"
         inkscape:connector-curvature="0" /></clipPath><clipPath
       clipPathUnits="userSpaceOnUse"
       id="clipPath102-1"><path
         d="m 0,0 388.50766,0 0,180.95926 L 0,180.95926 0,0 Z"
         id="path104-1"
         inkscape:connector-curvature="0" /></clipPath></defs><sodipodi:namedview
     pagecolor="#ffffff"
     bordercolor="#666666"
     borderopacity="1"
     objecttolerance="10"
     gridtolerance="10"
     guidetolerance="10"
     inkscape:pageopacity="0"
     inkscape:pageshadow="2"
     inkscape:window-width="1918"
     inkscape:window-height="1060"
     id="namedview4"
     showgrid="false"
     showborder="true"
     fit-margin-top="2"
     fit-margin-left="2"
     fit-margin-right="2"
     fit-margin-bottom="2"
     inkscape:snap-page="true"
     inkscape:zoom="1"
     inkscape:cx="-201.01521"
     inkscape:cy="6.6905168"
     inkscape:window-x="0"
     inkscape:window-y="18"
     inkscape:window-maximized="0"
     inkscape:current-layer="g100" /><g
     id="g10"
     inkscape:groupmode="layer"
     inkscape:label="MODEST_rapport"
     transform="matrix(1.25,0,0,-1.25,-281.80542,665.24421)"><g
       id="g100"
       clip-path="url(#clipPath102-1)"
       transform="matrix(0.6875,0,0,0.6875,83.944408,411.68606)"><g
         id="g134"
         transform="translate(200.14535,0)"><path
           d="m 111.25,172.959 0,-63.301 c 0,-23.984 16.195,-43.425 36.199,-43.425 20.004,0 36.227,19.441 36.227,43.425 0,23.985 -16.223,43.426 -36.227,43.426 -9.117,0 -17.433,-4.054 -23.801,-10.726 l 0,30.601 -12.398,0 z m 36.199,-34.726 c 13.156,0 23.824,-12.793 23.824,-28.575 0,-15.777 -10.668,-28.574 -23.824,-28.574 -13.152,0 -23.801,12.797 -23.801,28.574 0,15.782 10.649,28.575 23.801,28.575 z"
           style="fill:#4977b5;fill-opacity:1;fill-rule:nonzero;stroke:none"
           id="path136"
           inkscape:connector-curvature="0" /><path
           d="m 95.551,153.084 c -10.031,0 -19.117,-4.902 -25.676,-12.801 -0.391,-0.468 -0.777,-0.933 -1.148,-1.425 -0.02,-0.024 -0.036,-0.051 -0.051,-0.075 -0.383,-0.503 -0.738,-1.023 -1.102,-1.55 -0.004,-0.008 -0.019,-0.016 -0.023,-0.024 -0.352,-0.511 -0.696,-1.043 -1.028,-1.574 -0.015,-0.027 -0.031,-0.051 -0.046,-0.074 -0.332,-0.535 -0.641,-1.074 -0.954,-1.625 -0.132,-0.242 -0.265,-0.481 -0.398,-0.727 -0.184,-0.343 -0.375,-0.676 -0.551,-1.023 -0.012,-0.024 -0.012,-0.055 -0.023,-0.078 -0.289,-0.575 -0.582,-1.157 -0.852,-1.75 -0.011,-0.024 -0.011,-0.051 -0.023,-0.075 -0.27,-0.589 -0.531,-1.191 -0.778,-1.8 -0.003,-0.016 -0.015,-0.032 -0.023,-0.047 -0.246,-0.617 -0.477,-1.246 -0.699,-1.875 -0.008,-0.02 -0.02,-0.035 -0.028,-0.051 -0.218,-0.633 -0.425,-1.277 -0.625,-1.926 -0.089,-0.297 -0.164,-0.597 -0.25,-0.898 -0.105,-0.371 -0.226,-0.727 -0.324,-1.102 -0.004,-0.015 0.004,-0.035 0,-0.051 -0.066,-0.253 -0.113,-0.519 -0.176,-0.773 -0.234,-0.973 -0.468,-1.953 -0.648,-2.949 -0.023,-0.137 -0.051,-0.266 -0.074,-0.403 -0.004,-0.007 0,-0.015 0,-0.023 -0.121,-0.699 -0.211,-1.391 -0.301,-2.102 0,-0.007 0,-0.015 0,-0.023 -0.09,-0.711 -0.188,-1.43 -0.25,-2.152 0,-0.008 0,-0.016 0,-0.024 -0.121,-1.453 -0.176,-2.933 -0.176,-4.426 l 0,-61.925 12.403,0 0,33.703 c 2.175,3.035 4.011,6.422 5.421,10.097 -3.078,4.493 -5.046,10.133 -5.375,16.301 -0.003,0.074 0.004,0.153 0,0.227 -0.023,0.531 -0.046,1.058 -0.046,1.597 0,0.426 0.007,0.856 0.023,1.278 0.004,0.066 -0.004,0.133 0,0.199 0.016,0.359 0.051,0.719 0.074,1.074 0.012,0.125 0.016,0.25 0.028,0.375 0.003,0.067 0.015,0.133 0.023,0.199 0.035,0.395 0.074,0.786 0.125,1.176 0.031,0.254 0.062,0.5 0.102,0.75 0.058,0.41 0.121,0.797 0.199,1.199 0.054,0.301 0.109,0.602 0.176,0.903 0.019,0.101 0.05,0.199 0.074,0.297 0.09,0.398 0.195,0.789 0.301,1.175 0.105,0.399 0.203,0.813 0.324,1.2 0.113,0.375 0.25,0.738 0.375,1.101 0.129,0.375 0.258,0.735 0.398,1.102 0.145,0.363 0.297,0.742 0.449,1.097 0.157,0.36 0.309,0.704 0.477,1.051 0.668,1.395 1.43,2.719 2.273,3.949 4.372,6.379 10.985,10.45 18.403,10.45 4.933,0 9.5,-1.793 13.301,-4.875 l 0,16.703 c -4.118,1.949 -8.606,3.023 -13.301,3.023 z"
           style="fill:#4977b5;fill-opacity:1;fill-rule:nonzero;stroke:none"
           id="path138"
           inkscape:connector-curvature="0" /><path
           d="M 44.227,153.084 C 24.223,153.084 8,133.643 8,109.658 8,85.674 24.223,66.233 44.227,66.233 c 4.558,0 8.91,1.027 12.921,2.875 l 0,16.55 c -3.722,-2.894 -8.156,-4.574 -12.921,-4.574 -13.157,0 -23.829,12.797 -23.829,28.574 0,15.782 10.672,28.575 23.829,28.575 6.425,0 12.261,-3.059 16.546,-8.024 1.864,4.516 4.329,8.61 7.25,12.149 -6.367,6.668 -14.679,10.726 -23.796,10.726 z"
           style="fill:#4977b5;fill-opacity:1;fill-rule:nonzero;stroke:none"
           id="path140"
           inkscape:connector-curvature="0" /></g><g
         id="g106" /></g><g
       id="g4543"
       transform="matrix(0.69982842,0,0,0.69982842,-757.82009,146.50944)"
       style="fill:#333333"><text
         transform="scale(1,-1)"
         sodipodi:linespacing="125%"
         id="text4527"
         y="-463.83423"
         x="665.70782"
         style="font-style:normal;font-variant:normal;font-weight:normal;font-stretch:normal;font-size:113.32598114px;line-height:125%;font-family:'Neo Sans Pro';-inkscape-font-specification:'Neo Sans Pro';letter-spacing:0px;word-spacing:0px;fill:#333333;fill-opacity:1;stroke:none;stroke-width:1px;stroke-linecap:butt;stroke-linejoin:miter;stroke-opacity:1"
         xml:space="preserve"><tspan
           style="font-style:normal;font-variant:normal;font-weight:normal;font-stretch:normal;font-family:'Neo Sans Pro';-inkscape-font-specification:'Neo Sans Pro';fill:#333333"
           y="-463.83423"
           x="665.70782"
           id="tspan4529"
           sodipodi:role="line">EMOPEC</tspan></text>
<text
         transform="scale(1,-1)"
         sodipodi:linespacing="125%"
         id="text4531"
         y="-421.01047"
         x="673.16083"
         style="font-style:normal;font-variant:normal;font-weight:normal;font-stretch:normal;font-size:22.02703667px;line-height:125%;font-family:'Neo Sans Pro';-inkscape-font-specification:'Neo Sans Pro';letter-spacing:0px;word-spacing:0px;fill:#333333;fill-opacity:1;stroke:none;stroke-width:1px;stroke-linecap:butt;stroke-linejoin:miter;stroke-opacity:1"
         xml:space="preserve"><tspan
           id="tspan4537"
           y="-421.01047"
           x="673.16083"
           sodipodi:role="line">Empirical Model and Oligos</tspan><tspan
           y="-393.47668"
           x="673.16083"
           sodipodi:role="line"
           id="tspan4549">for Protein Expression Changes</tspan></text>
</g><g
       id="g108"
       transform="matrix(0.5312442,0,0,0.5312442,229.36743,439.12256)"><g
         id="g110"
         clip-path="url(#clipPath112-1)"><g
           id="g116"
           transform="translate(0,-0.040741)"><g
             id="g118" /><g
             id="g124"><g
               clip-path="url(#clipPath120-0)"
               id="g126"><g
                 id="g128"><path
                   d="m 277.148,172.227 c -0.437,0 -0.707,-0.133 -0.902,-0.329 -0.195,-0.195 -0.324,-0.46 -0.324,-0.902 l 0,-56.129 c 0,-0.441 0.129,-0.707 0.324,-0.902 0.195,-0.195 0.465,-0.324 0.902,-0.324 l 14.684,0 c 5.703,0 9.18,1.297 11.293,4.027 3.105,3.727 3.207,9.742 3.207,18.965 l 0,12.597 c 0,9.223 -0.102,15.243 -3.207,18.969 -2.113,2.731 -5.59,4.028 -11.293,4.028 l -14.684,0 z m 8.09,-6.852 5.172,0 c 2.293,0 3.652,-0.371 4.711,-1.641 1.629,-1.953 1.77,-5.902 1.77,-13.863 l 0,-13.879 c 0,-7.961 -0.141,-11.91 -1.77,-13.863 -1.059,-1.27 -2.418,-1.641 -4.711,-1.641 l -5.172,0 0,44.887 z m 89.176,5.621 c 0,0.442 -0.133,0.707 -0.328,0.902 -0.191,0.196 -0.461,0.329 -0.902,0.329 l -6.86,0 c -0.441,0 -0.711,-0.133 -0.902,-0.329 -0.195,-0.195 -0.328,-0.46 -0.328,-0.902 l 0,-41.437 c 0,-4.325 -0.328,-6.895 -1.731,-8.438 -0.953,-1.047 -2.301,-1.559 -4.191,-1.559 -1.715,0 -3.012,0.473 -4.004,1.567 -1.332,1.461 -1.738,3.949 -1.738,8.43 l 0,41.437 c 0,0.442 -0.129,0.707 -0.325,0.902 -0.195,0.196 -0.464,0.329 -0.906,0.329 l -6.855,0 c -0.446,0 -0.711,-0.133 -0.906,-0.329 -0.196,-0.195 -0.325,-0.46 -0.325,-0.902 l 0,-41.449 c 0,-6.035 0.821,-9.82 3.219,-12.453 2.488,-2.742 6.254,-4.196 11.961,-4.196 5.773,0 9.488,1.543 11.773,4.2 2.688,3.125 3.348,6.843 3.348,12.449 l 0,41.449 z m -44.305,-56.129 c 0,-0.441 -0.129,-0.707 -0.324,-0.902 -0.195,-0.195 -0.461,-0.324 -0.902,-0.324 l -7.508,0 c -0.437,0 -0.707,0.129 -0.898,0.324 -0.2,0.195 -0.329,0.461 -0.329,0.902 l 0,49.953 -8.816,0 c -0.441,0 -0.707,0.133 -0.902,0.328 -0.2,0.192 -0.328,0.461 -0.328,0.899 l 0,4.949 c 0,0.442 0.128,0.707 0.328,0.902 0.195,0.196 0.461,0.329 0.902,0.329 l 27.594,0 c 0.441,0 0.711,-0.133 0.906,-0.329 0.191,-0.195 0.324,-0.46 0.324,-0.902 l 0,-4.949 c 0,-0.438 -0.133,-0.707 -0.324,-0.899 -0.195,-0.195 -0.465,-0.328 -0.906,-0.328 l -8.817,0 0,-49.953"
                   style="fill:#848182;fill-opacity:1;fill-rule:nonzero;stroke:none"
                   id="path130"
                   inkscape:connector-curvature="0" /><path
                   d="M 380.629,84.32 357.09,71.969 c -30.477,11.851 -33.043,11.851 -63.528,0 l -23.535,12.351 23.535,12.36 c 30.485,-11.86 33.051,-11.86 63.528,0 l 23.539,-12.36 z m 0,-30.539 -23.539,-12.355 c -30.477,11.855 -33.043,11.855 -63.528,0 l -23.535,12.355 23.535,12.356 c 30.485,-11.856 33.051,-11.856 63.528,0 l 23.539,-12.356 z m 0,-30.539 -23.539,-12.351 c -30.477,11.851 -33.043,11.851 -63.528,0 l -23.535,12.351 23.535,12.352 c 30.485,-11.852 33.051,-11.852 63.528,0 l 23.539,-12.352"
                   style="fill:#971a1f;fill-opacity:1;fill-rule:nonzero;stroke:none"
                   id="path132"
                   inkscape:connector-curvature="0" /></g></g></g></g></g></g></g></svg>